#!OML:ASF E:\emotionWalksFemale\Project 1\Capture day 1\Session 1\Female1.ASF
:FULLY-SPECIFIED
:DEGREES
236
root 8.78053 18.4294 16.9327 185.524 -31.9534 -181.378
lowerback 7.94705 1.07389 2.74366
upperback -5.0432 1.61684 -0.959314
thorax -9.74318 0.527526 -2.82416
lowerneck -6.73416 2.00223 0.174037
upperneck 8.47673 2.77461 -1.70566
head 4.00305 1.27071 -0.445834
rclavicle 1.62413e-013 3.3694e-014
rhumerus -31.0502 51.2278 -53.792
rradius 53.0976
rwrist 15.5307
rhand 1.15573 -58.3205
rfingers 7.12502
rthumb 26.6969 -446.457
lclavicle 1.62413e-013 3.3694e-014
lhumerus -15.1965 -18.8506 89.875
lradius 28.0632
lwrist -39.3588
lhand 11.1036 -45.9266
lfingers 7.12502
lthumb 36.1723 -19.6526
rfemur -10.7424 7.75884 24.307
rtibia 31.383
rfoot 30.7122 -12.1444
rtoes 0.861438
lfemur -12.912 -9.89955 -22.8212
ltibia 23.7225
lfoot 22.8828 10.3802
ltoes -10.0897
237
root 8.78906 18.5482 16.8136 185.512 -33.7979 -181.361
lowerback 8.25634 0.89166 2.86228
upperback -4.9747 1.40119 -0.962997
thorax -9.86439 0.415893 -2.86844
lowerneck -7.35573 2.39228 0.384319
upperneck 8.78054 3.29622 -1.80784
head 4.2494 1.52532 -0.479172
rclavicle -5.45602e-014 -8.34896e-015
rhumerus -36.5487 51.4933 -58.2445
rradius 51.6913
rwrist 16.8441
rhand 0.996043 -58.645
rfingers 7.12502
rthumb 26.5441 -446.805
lclavicle -5.45602e-014 -8.34896e-015
lhumerus -16.087 -17.8843 90.8236
lradius 26.9196
lwrist -42.3455
lhand 11.9772 -45.6981
lfingers 7.12502
lthumb 36.9992 -19.6335
rfemur -11.0517 9.40333 23.9341
rtibia 29.837
rfoot 30.2147 -11.3666
rtoes -5.69109
lfemur -13.295 -9.79845 -23.3018
ltibia 22.7181
lfoot 22.3279 13.316
ltoes -2.53371
238
root 8.79663 18.6646 16.6928 185.499 -35.6032 -181.35
lowerback 8.56112 0.746449 3.0359
upperback -4.96715 1.23522 -1.02512
thorax -10.0459 0.318735 -3.01402
lowerneck -7.95021 2.66028 0.904403
upperneck 9.20052 3.63576 -2.12395
head 4.54811 1.68747 -0.648607
rclavicle 9.23976e-014 1.55052e-014
rhumerus -42.3414 51.47 -63.0776
rradius 50.1571
rwrist 18.1275
rhand 1.22193 -58.4259
rfingers 7.12502
rthumb 26.7602 -446.553
lclavicle 9.23976e-014 1.55052e-014
lhumerus -17.5633 -18.0979 91.7355
lradius 26.4028
lwrist -44.3835
lhand 12.4386 -45.4574
lfingers 7.12502
lthumb 37.4355 -19.5068
rfemur -11.3532 11.6174 23.353
rtibia 28.1374
rfoot 30.0785 -11.5565
rtoes -6.49042
lfemur -13.5617 -10.3644 -23.7427
ltibia 21.7719
lfoot 20.7859 17.1855
ltoes 8.73419
239
root 8.79958 18.7598 16.5745 185.391 -37.3166 -181.233
lowerback 8.84512 0.547872 3.23337
upperback -4.94307 1.01365 -0.956628
thorax -10.2046 0.199408 -3.02089
lowerneck -8.62608 2.97277 1.26619
upperneck 10.1266 4.06612 -2.51743
head 4.52498 1.87072 -0.720941
rclavicle 4.09372e-014 3.18055e-015
rhumerus -47.8201 51.4795 -67.791
rradius 48.4935
rwrist 19.2056
rhand 1.48838 -58.2051
rfingers 7.12502
rthumb 27.0152 -446.293
lclavicle 4.09372e-014 3.18055e-015
lhumerus -19.163 -18.3539 92.7176
lradius 26.0469
lwrist -46.0134
lhand 12.4648 -45.0237
lfingers 7.12502
lthumb 37.4602 -19.0797
rfemur -11.6197 14.1081 22.715
rtibia 26.4244
rfoot 30.5133 -11.0117
rtoes -9.99792
lfemur -13.7527 -11.1233 -24.0899
ltibia 20.8897
lfoot 18.2527 20.8808
ltoes 19.4239
240
root 8.79658 18.8344 16.4599 185.272 -39.0858 -181.12
lowerback 9.12014 0.312379 3.54906
upperback -4.91183 0.759044 -0.891922
thorax -10.3533 0.0561531 -3.0905
lowerneck -9.25025 3.32473 1.58192
upperneck 10.5798 4.54035 -2.82625
head 4.79254 2.08614 -0.821508
rclavicle 5.01714e-014 1.5704e-014
rhumerus -53.2108 51.2833 -72.6434
rradius 46.7158
rwrist 20.2257
rhand 1.88018 -58.25
rfingers 7.12502
rthumb 27.39 -446.279
lclavicle 5.01714e-014 1.5704e-014
lhumerus -20.6376 -18.3994 93.7782
lradius 25.5834
lwrist -47.5799
lhand 12.4196 -44.4229
lfingers 7.12502
lthumb 37.4175 -18.4675
rfemur -11.9181 16.2806 21.9872
rtibia 24.8605
rfoot 30.7269 -11.6621
rtoes -10.8703
lfemur -13.9222 -11.6926 -24.5038
ltibia 20.1018
lfoot 15.9536 23.3171
ltoes 23.1481
241
root 8.79467 18.8968 16.3443 185.195 -40.9129 -181.017
lowerback 9.30206 0.140433 3.83712
upperback -4.88273 0.57847 -0.878606
thorax -10.4445 -0.0507686 -3.20978
lowerneck -9.5921 3.62797 2.05321
upperneck 10.7097 4.9202 -3.10836
head 4.91738 2.26996 -0.950082
rclavicle 6.13561e-014 -9.0447e-015
rhumerus -58.6161 50.605 -77.5613
rradius 45.0679
rwrist 21.3887
rhand 2.01542 -58.1626
rfingers 7.12502
rthumb 27.5193 -446.171
lclavicle 6.13561e-014 -9.0447e-015
lhumerus -22.3215 -19.3645 94.9852
lradius 25.4845
lwrist -48.1361
lhand 12.5173 -43.9249
lfingers 7.12502
lthumb 37.5098 -17.9939
rfemur -12.2866 17.8821 21.2578
rtibia 23.523
rfoot 30.1715 -14.7959
rtoes -5.64073
lfemur -14.0747 -12.4494 -24.9371
ltibia 19.4537
lfoot 13.1695 26.0712
ltoes 27.8996
